<?xml version="1.0" standalone="no"?>
<!DOCTYPE svg PUBLIC "-//W3C//DTD SVG 20010904//EN"
 "http://www.w3.org/TR/2001/REC-SVG-20010904/DTD/svg10.dtd">
<svg version="1.0" xmlns="http://www.w3.org/2000/svg"
 width="815.000000pt" height="757.000000pt" viewBox="0 0 815.000000 757.000000"
 preserveAspectRatio="xMidYMid meet">

<g transform="translate(0.000000,757.000000) scale(0.100000,-0.100000)"
fill="#000000" stroke="none">
<path d="M0 3785 l0 -3785 4075 0 4075 0 0 3785 0 3785 -4075 0 -4075 0 0
-3785z m4446 1404 l351 -351 239 76 c399 128 489 156 497 156 13 0 7 -25 -15
-60 -13 -19 -23 -42 -24 -50 0 -8 -2 -23 -3 -32 0 -10 -6 -18 -11 -18 -7 0 -7
7 0 21 7 11 10 23 7 25 -7 7 -52 -68 -52 -86 -1 -8 -6 -14 -13 -13 -7 2 -11 0
-11 -5 3 -18 -2 -33 -9 -28 -5 3 -9 -2 -9 -10 0 -11 6 -9 23 7 16 15 23 17 27
7 3 -7 4 5 2 27 -2 22 -1 34 2 27 4 -10 8 -10 19 -1 18 15 19 -5 1 -22 -7 -7
-11 -25 -9 -41 3 -20 0 -28 -10 -28 -11 0 -14 -7 -11 -25 3 -13 -4 -55 -15
-92 -10 -37 -32 -116 -47 -175 l-28 -108 -106 -1 c-58 0 -114 -2 -125 -4 -15
-3 -17 1 -13 24 5 24 1 30 -31 46 -48 23 -489 225 -612 280 -52 23 -154 70
-227 104 -135 62 -153 68 -153 51 0 -5 -11 -10 -24 -10 -30 0 -37 -9 -29 -38
6 -25 31 -29 39 -7 8 20 23 19 31 -2 3 -10 42 -108 86 -218 44 -110 82 -208
84 -217 5 -17 -8 -18 -183 -17 -104 1 -200 5 -214 9 -22 7 -22 8 -5 10 11 1
23 2 27 1 4 0 11 17 14 39 4 22 11 40 16 40 5 0 8 6 7 13 -2 13 7 41 23 71 7
14 6 21 -4 27 -7 5 -10 9 -5 9 17 0 23 2 35 12 6 6 12 15 12 21 0 6 -6 2 -14
-9 -14 -18 -15 -18 -24 6 -5 13 -7 33 -4 44 5 18 6 18 19 1 12 -17 13 -15 13
20 l0 39 -25 -35 c-18 -23 -24 -41 -20 -58 5 -18 3 -22 -9 -18 -9 4 -16 5 -16
3 0 -3 -3 -11 -6 -20 -4 -10 -1 -16 9 -16 9 0 19 -5 23 -12 5 -8 0 -9 -15 -5
-25 6 -65 -28 -76 -65 -4 -13 -14 -30 -22 -40 -13 -14 -12 -18 4 -28 16 -10
16 -11 -4 -7 -13 3 -25 1 -28 -3 -3 -5 -20 -17 -38 -26 -27 -15 -71 -18 -299
-22 -192 -3 -268 -1 -268 7 0 6 5 11 11 11 10 0 176 75 361 163 47 23 84 45
82 49 -3 5 4 8 14 8 13 0 19 6 18 18 -1 14 7 17 42 15 24 -1 40 2 37 7 -3 6 1
7 9 4 9 -3 16 -2 16 3 0 6 18 16 40 23 39 13 40 14 23 33 -17 19 -17 19 3 13
17 -5 22 -3 20 11 0 12 7 19 22 21 12 2 22 -2 22 -8 0 -7 7 -10 15 -6 8 3 15
2 15 -2 0 -4 20 -8 45 -8 35 -1 45 2 45 15 0 13 -2 13 -9 2 -6 -9 -8 4 -6 34
3 44 2 47 -18 40 -12 -4 -39 -10 -60 -15 -21 -4 -41 -11 -45 -15 -4 -4 4 -4
17 0 17 5 21 4 16 -5 -4 -7 -20 -10 -35 -8 -21 3 -30 0 -33 -12 -2 -9 -15 -20
-28 -23 -23 -6 -23 -5 -5 8 20 15 10 20 -18 9 -9 -3 -12 -12 -8 -22 5 -15 4
-15 -11 -3 -15 12 -17 12 -12 -1 4 -10 -1 -17 -14 -21 -12 -3 -19 -1 -15 4 3
5 0 9 -5 9 -6 0 -11 -4 -11 -9 0 -13 -29 -41 -43 -41 -6 0 -2 7 9 15 19 15 19
15 -1 8 -37 -13 -80 -41 -78 -51 1 -5 -7 -8 -17 -5 -11 3 -27 0 -35 -7 -8 -6
-19 -9 -24 -5 -6 3 -8 0 -5 -8 4 -10 -3 -13 -27 -9 -22 3 -30 1 -25 -7 4 -6 2
-12 -3 -12 -21 -3 -27 -5 -86 -28 -33 -14 -71 -32 -85 -42 -14 -9 -29 -17 -35
-18 -22 -1 -84 -34 -79 -42 3 -5 -1 -6 -9 -3 -8 3 -37 -6 -65 -20 -43 -22 -49
-28 -45 -51 l5 -25 -130 0 -130 0 -20 68 c-11 37 -50 175 -87 307 -37 132 -72
255 -78 272 -6 18 -8 35 -5 39 6 5 161 -40 313 -91 46 -15 380 -121 410 -129
16 -5 88 62 370 344 192 193 354 350 360 350 5 0 168 -158 361 -351z m-42
-556 c44 -20 75 -38 68 -41 -6 -2 -20 1 -31 7 -24 13 -31 14 -31 3 0 -5 11
-15 25 -22 14 -7 25 -17 25 -22 0 -5 -9 -4 -19 2 -23 12 -32 13 -28 3 3 -10
-7 -13 -35 -13 -23 1 -23 1 2 15 18 10 20 14 8 15 -9 0 -23 3 -32 6 -10 4 -16
1 -16 -9 0 -9 -3 -18 -7 -20 -5 -3 -8 5 -8 18 0 13 3 21 8 18 4 -2 7 0 7 6 0
15 -14 21 -30 11 -9 -6 -18 -3 -26 8 -16 23 -54 92 -54 97 0 3 21 -6 48 -20
26 -13 83 -41 126 -62z m-784 -3 c18 -12 2 -12 -25 0 -13 6 -15 9 -5 9 8 0 22
-4 30 -9z m-40 -30 c8 -5 11 -12 8 -16 -4 -3 -14 1 -23 10 -18 17 -9 21 15 6z
m-95 -30 c3 -6 -1 -7 -9 -4 -18 7 -21 14 -7 14 6 0 13 -4 16 -10z m1005 0 c0
-5 -4 -10 -10 -10 -5 0 -10 5 -10 10 0 6 5 10 10 10 6 0 10 -4 10 -10z m-1020
-16 c0 -2 -7 -4 -15 -4 -8 0 -15 4 -15 10 0 5 7 7 15 4 8 -4 15 -8 15 -10z
m434 -9 c-5 -11 -2 -13 9 -9 14 5 14 2 4 -20 -11 -23 -12 -24 -15 -6 -2 11 -7
20 -12 20 -5 0 -7 7 -4 15 4 8 10 15 15 15 4 0 6 -7 3 -15z m-7 -89 c4 -27
-11 -43 -23 -25 -4 8 -3 9 4 5 20 -12 13 20 -10 50 l-23 29 24 -18 c14 -9 26
-28 28 -41z m-1337 -66 c0 -5 -4 -10 -10 -10 -5 0 -10 5 -10 10 0 6 5 10 10
10 6 0 10 -4 10 -10z m1263 3 c-13 -2 -35 -2 -50 0 -16 2 -5 4 22 4 28 0 40
-2 28 -4z m1807 -3 c0 -5 -5 -10 -11 -10 -5 0 -7 5 -4 10 3 6 8 10 11 10 2 0
4 -4 4 -10z m-1962 -155 c-3 -3 -9 2 -12 12 -6 14 -5 15 5 6 7 -7 10 -15 7
-18z m-187 -28 c-10 -9 -11 -8 -5 6 3 10 9 15 12 12 3 -3 0 -11 -7 -18z m1006
-9 c-3 -8 -6 -5 -6 6 -1 11 2 17 5 13 3 -3 4 -12 1 -19z m-827 2 c0 -5 -5 -10
-11 -10 -5 0 -7 5 -4 10 3 6 8 10 11 10 2 0 4 -4 4 -10z m-1632 -11 l42 2 0
-46 c0 -25 4 -45 8 -45 5 0 8 18 7 40 -1 22 0 40 3 40 2 0 17 -9 33 -21 23
-16 27 -24 19 -34 -6 -7 -7 -16 -2 -19 4 -3 8 -22 7 -43 0 -33 -4 -38 -27 -41
-15 -2 -37 2 -48 8 -20 11 -21 12 -4 24 15 11 13 12 -15 8 -17 -2 -38 1 -46 8
-12 10 -18 10 -30 0 -8 -7 -15 -19 -15 -26 0 -8 -6 -14 -12 -14 -7 0 7 -10 32
-21 50 -23 100 -66 100 -86 0 -8 5 -11 10 -8 14 8 63 -23 55 -35 -3 -5 -1 -11
4 -14 30 -19 -23 -134 -57 -121 -7 2 -10 0 -7 -5 3 -6 5 -10 3 -11 -58 -11
-94 -8 -120 11 -28 21 -55 19 -42 -2 5 -7 1 -9 -9 -5 -10 3 -17 3 -17 -2 0 -4
-10 -7 -22 -6 -13 1 -23 6 -23 11 0 20 -17 34 -41 34 -24 0 -25 1 -22 68 l3
67 33 3 c27 3 35 -1 39 -17 3 -12 10 -21 15 -21 5 0 6 5 3 10 -4 6 5 5 19 -2
28 -12 33 -24 14 -31 -7 -3 3 -6 23 -6 24 -1 42 6 55 20 26 28 11 47 -65 85
-92 46 -116 73 -116 133 0 39 5 55 24 75 30 32 75 47 116 39 17 -3 49 -5 73
-4z m1370 1 c42 1 42 1 44 -37 1 -37 1 -37 5 -5 5 38 6 38 44 12 25 -19 28
-26 27 -73 -1 -29 -6 -58 -11 -64 -13 -18 -68 -7 -89 17 -9 11 -23 20 -31 20
-9 0 -17 6 -20 13 -5 16 -33 -6 -40 -32 -3 -15 7 -24 44 -42 28 -12 58 -36 69
-53 11 -17 20 -28 20 -23 0 18 2 23 18 41 11 12 12 16 3 11 -10 -5 -12 -4 -7
3 4 7 2 12 -4 12 -6 0 -8 5 -4 12 6 9 9 9 12 0 2 -7 12 -12 23 -12 17 0 18 -3
7 -20 -7 -11 -19 -20 -27 -20 -11 0 -11 -3 0 -17 12 -14 12 -16 -1 -9 -8 4 -6
0 4 -8 19 -15 34 -19 66 -17 10 0 11 -1 2 -5 -6 -3 -10 -10 -7 -14 3 -5 -4 -7
-16 -5 -15 3 -18 1 -12 -8 5 -7 8 -25 7 -42 -3 -41 -2 -40 -21 -61 -42 -46
-132 -59 -175 -24 -26 20 -46 16 -27 -6 8 -10 2 -12 -28 -10 -49 2 -92 24 -72
37 10 6 6 9 -13 9 -28 0 -28 0 -28 70 l0 70 31 0 c28 0 70 -17 107 -44 11 -8
10 -11 -5 -17 -14 -6 -11 -8 13 -8 41 -1 67 19 62 49 -2 19 -20 32 -80 62 -83
40 -105 64 -109 118 -3 48 8 76 39 99 36 25 60 31 102 25 19 -3 54 -5 78 -4z
m511 -19 c20 -11 44 -28 55 -40 10 -11 22 -18 27 -15 11 6 82 -90 86 -118 2
-12 7 -25 11 -28 10 -7 9 -80 -2 -80 -4 0 -6 -9 -3 -19 3 -12 -1 -22 -10 -25
-8 -3 -12 -10 -8 -16 7 -12 -70 -83 -99 -91 -14 -3 -20 -12 -18 -25 2 -14 0
-16 -6 -6 -6 9 -21 12 -45 8 -20 -3 -38 -2 -41 2 -2 4 -21 7 -41 7 -23 -1 -44
5 -59 19 -13 12 -44 32 -69 45 -52 26 -103 93 -113 148 -9 50 4 117 31 157 13
19 22 45 20 56 -2 11 0 18 6 15 5 -4 7 -11 4 -16 -10 -16 5 -10 38 15 52 40
165 43 236 7z m466 19 c28 0 52 -7 75 -23 32 -21 35 -27 35 -75 0 -29 3 -52 8
-52 4 0 7 -4 7 -10 0 -5 -20 -10 -45 -10 -32 0 -51 6 -66 21 -12 12 -29 19
-39 16 -13 -3 -17 0 -13 9 9 25 -23 5 -35 -21 -10 -22 -8 -25 24 -35 19 -7 51
-27 71 -47 21 -19 50 -42 65 -51 31 -18 45 -65 32 -104 -4 -12 -7 -26 -6 -30
1 -4 -10 -15 -26 -25 -15 -10 -30 -21 -33 -26 -3 -4 -21 -9 -40 -10 -18 -1
-41 -10 -51 -19 -9 -9 -26 -15 -37 -13 -11 2 -23 -1 -26 -6 -4 -5 -12 -6 -18
-2 -18 11 -36 12 -43 2 -3 -5 -34 -9 -70 -9 -44 0 -64 -4 -64 -12 0 -9 -3 -8
-10 2 -5 8 -13 15 -18 15 -9 0 -42 30 -42 39 0 2 12 3 28 2 45 -6 48 -8 22
-15 -18 -6 -11 -8 30 -9 30 0 64 -3 75 -5 11 -3 29 0 40 6 10 5 45 9 77 8 63
-2 75 10 29 30 -16 7 -27 17 -24 23 4 5 1 6 -7 1 -10 -6 -9 -11 6 -23 18 -13
17 -14 -8 -10 -15 3 -32 1 -39 -3 -7 -4 -22 -2 -33 4 -12 6 -30 10 -41 9 -11
-1 -14 1 -8 4 10 4 10 9 -1 20 -18 17 -30 18 -19 2 13 -21 12 -37 -3 -49 -11
-9 -16 -6 -25 14 -10 22 -15 24 -36 16 -13 -5 -31 -9 -38 -9 -20 0 -7 30 14
31 12 0 12 2 -4 8 -16 6 -14 9 15 15 19 3 31 10 25 14 -18 13 -14 42 7 42 10
0 16 -4 13 -10 -3 -5 0 -10 7 -10 9 0 9 -3 -2 -10 -8 -5 -10 -10 -3 -10 7 0 9
-9 6 -22 -4 -14 -2 -20 3 -15 5 5 11 39 14 75 l5 67 42 -1 c26 0 51 -8 62 -18
15 -14 24 -15 38 -7 12 7 14 10 4 11 -8 0 -12 2 -9 5 7 8 38 -5 38 -16 0 -5
-9 -9 -21 -9 -11 0 -18 -4 -14 -9 3 -5 -3 -12 -12 -14 -10 -3 -3 -5 15 -6 30
-1 72 26 72 47 0 15 -32 37 -103 71 -74 35 -97 65 -97 125 0 25 9 45 30 70 33
37 63 47 120 39 19 -2 53 -4 75 -3z m955 -25 c19 -12 41 -30 49 -39 7 -8 17
-14 21 -11 8 5 57 -47 80 -86 13 -21 16 -46 19 -127 1 -15 5 -21 13 -16 7 5 8
3 4 -5 -5 -7 -14 -10 -21 -8 -8 4 -11 -6 -10 -35 1 -22 0 -35 -4 -30 -6 11
-43 -10 -41 -23 2 -9 -41 -41 -67 -49 -64 -20 -128 -23 -148 -6 -6 5 -14 7
-18 4 -3 -3 -15 0 -27 6 -16 9 -25 8 -38 -2 -15 -12 -16 -11 -3 5 16 20 19 17
-44 51 -28 15 -61 43 -75 64 -22 32 -25 48 -25 123 0 78 2 89 28 122 35 47 66
67 125 83 60 17 136 8 182 -21z m-2920 6 c30 -16 35 -24 38 -61 3 -34 0 -42
-12 -37 -8 3 -20 -1 -26 -9 -7 -8 -9 -14 -6 -14 4 0 2 -8 -3 -19 -6 -10 -7
-22 -3 -26 4 -3 7 -47 7 -97 1 -83 3 -92 23 -106 21 -14 32 -71 15 -73 -61 -8
-120 -4 -136 9 -16 15 -17 14 -11 -2 6 -16 4 -17 -15 -7 -12 7 -25 19 -28 27
-3 8 -14 14 -24 14 -15 0 -19 7 -19 35 0 31 3 35 25 35 l26 0 -3 138 c-3 129
-4 137 -23 137 -16 0 -21 8 -23 38 l-3 37 83 0 c62 0 92 -5 118 -19z m228 3
c34 -16 65 -54 82 -98 6 -17 14 -24 22 -20 7 4 8 3 4 -4 -4 -6 1 -26 11 -44 9
-18 16 -36 15 -40 -1 -5 2 -8 7 -8 5 0 11 -7 13 -15 2 -8 33 43 69 113 l66
127 55 3 c43 2 61 -2 88 -20 29 -20 35 -30 35 -61 1 -36 0 -38 -30 -35 -22 2
-29 -2 -27 -12 10 -42 8 -230 -2 -230 -6 0 5 -8 24 -19 28 -14 35 -25 37 -50
1 -17 -2 -32 -5 -32 -4 -1 -42 -3 -84 -4 -68 -1 -80 1 -102 22 -28 26 -40 29
-34 11 13 -38 -62 -46 -92 -10 -26 31 -46 33 -45 4 0 -26 -1 -26 -78 -27 -68
-2 -80 1 -103 21 -14 13 -32 24 -40 24 -9 0 -14 11 -14 35 0 33 7 40 37 36 9
-1 13 36 15 134 2 85 -1 135 -7 136 -5 1 -17 2 -25 3 -10 1 -16 14 -18 39 l-3
37 49 0 c27 0 63 -7 80 -16z m2242 5 c0 -5 4 -7 10 -4 5 3 24 -2 40 -12 29
-17 30 -20 28 -77 l-3 -60 -38 -2 c-27 -2 -45 4 -67 23 l-30 25 -1 -54 c-2
-114 1 -200 7 -210 3 -5 13 -7 21 -4 8 3 11 1 8 -4 -3 -6 -2 -10 4 -10 6 0 8
-17 6 -41 -4 -41 -15 -67 -15 -38 0 11 -11 15 -42 13 -24 -1 -49 3 -57 10 -10
7 -13 7 -8 0 13 -22 -50 -13 -76 12 -14 13 -30 24 -35 24 -5 0 -7 11 -4 25 2
14 -1 31 -7 39 -10 12 -6 14 19 12 l30 -2 0 105 c0 64 -4 101 -9 92 -16 -24
-65 -22 -93 4 -14 13 -29 21 -32 18 -3 -4 -6 24 -6 60 l0 67 175 0 c117 0 175
-4 175 -11z m946 -9 c27 -13 46 -32 54 -50 7 -17 17 -30 22 -30 6 0 5 7 -2 15
-19 23 -6 28 16 5 42 -42 48 -55 50 -108 2 -62 -3 -85 -19 -75 -6 3 -7 1 -3
-6 5 -7 -5 -23 -23 -40 -34 -32 -38 -41 -18 -41 7 0 29 -12 50 -26 33 -22 38
-30 35 -57 -3 -30 -5 -32 -43 -32 -42 -1 -95 19 -95 35 0 6 -6 10 -12 10 -7 0
-26 18 -41 40 -29 41 -41 48 -52 30 -3 -5 6 -17 20 -26 18 -12 25 -25 25 -48
0 -39 -8 -50 -27 -35 -7 6 -13 7 -13 2 0 -11 -71 -11 -89 1 -10 6 -12 6 -7 -2
10 -16 -5 -14 -28 3 -10 8 -23 12 -28 9 -5 -3 -7 0 -6 8 2 7 -7 14 -20 16 -20
3 -23 8 -20 40 2 29 7 37 23 37 19 0 20 7 20 135 0 132 0 135 -22 138 -19 3
-23 10 -23 38 l0 34 117 0 c97 0 124 -3 159 -20z m534 3 c0 -13 2 -15 8 -5 7
10 15 8 36 -9 21 -16 26 -28 24 -56 -1 -19 -6 -37 -11 -40 -4 -2 -3 -11 4 -19
20 -25 -63 -18 -90 7 -14 13 -37 22 -59 23 -33 1 -36 -1 -39 -31 -3 -19 0 -33
7 -33 6 0 28 -12 50 -26 31 -21 39 -32 38 -53 -1 -14 -7 -29 -13 -33 -5 -4 2
-8 18 -8 22 0 27 -4 27 -25 0 -14 5 -25 11 -25 5 0 7 5 4 10 -9 15 8 12 30 -4
14 -10 20 -28 21 -65 2 -44 0 -50 -12 -40 -11 9 -13 9 -9 -2 7 -19 -96 -19
-119 0 -15 12 -16 12 -9 -5 6 -17 5 -17 -10 -5 -9 7 -17 10 -17 5 0 -5 -31 -9
-69 -9 -56 1 -75 5 -105 25 -28 20 -36 31 -36 57 0 25 5 32 23 35 22 3 22 6
22 138 0 132 0 135 -22 138 -19 3 -23 10 -23 38 l0 34 160 0 c146 0 160 -2
160 -17z m-2773 -73 c-7 -17 -13 -26 -15 -21 -3 10 15 51 22 51 3 0 -1 -14 -7
-30z m543 12 c0 -8 -25 -32 -49 -47 -9 -5 -12 -3 -9 6 3 8 -2 20 -11 27 -14
11 -13 11 7 2 18 -9 23 -8 28 5 6 15 34 22 34 7z m-570 -36 c0 -3 -4 -8 -10
-11 -5 -3 -10 -1 -10 4 0 6 5 11 10 11 6 0 10 -2 10 -4z m570 -31 c0 -8 -4
-15 -10 -15 -5 0 -10 7 -10 15 0 8 5 15 10 15 6 0 10 -7 10 -15z m418 -25 c7
0 10 5 6 12 -4 6 4 3 18 -8 14 -10 25 -19 25 -20 -1 0 -21 1 -44 4 -31 3 -43
9 -43 20 0 12 3 13 12 4 7 -7 18 -12 26 -12z m-435 -9 c-4 -3 -11 -10 -15 -15
-5 -5 -8 0 -8 12 0 15 4 20 16 15 9 -3 12 -9 7 -12z m337 -11 c8 -5 11 -10 5
-10 -5 0 -17 5 -25 10 -8 5 -10 10 -5 10 6 0 17 -5 25 -10z m68 -35 c-2 -2
-14 -2 -25 1 -17 5 -19 9 -10 19 9 9 14 9 25 -2 8 -8 13 -16 10 -18z m26 20
c3 -8 1 -15 -4 -15 -6 0 -10 7 -10 15 0 8 2 15 4 15 2 0 6 -7 10 -15z m-373
-38 c-8 -8 -11 -7 -11 4 0 20 13 34 18 19 3 -7 -1 -17 -7 -23z m449 13 c0 -5
-8 -10 -17 -10 -15 0 -16 2 -3 10 19 12 20 12 20 0z m235 -20 c-3 -5 0 -11 5
-13 6 -3 5 -4 -2 -3 -7 2 -13 7 -13 12 0 5 -4 16 -10 24 -8 13 -7 13 8 1 9 -7
15 -17 12 -21z m-1612 3 c-5 -12 -3 -14 7 -8 8 5 11 4 7 -3 -4 -5 -17 -8 -28
-5 -21 6 -21 7 -4 20 24 17 26 16 18 -4z m301 -19 c8 -21 -7 -17 -21 6 -11 16
-10 18 1 14 8 -3 17 -12 20 -20z m586 13 c0 -8 -7 -14 -15 -14 -11 0 -12 4 -4
14 6 7 13 13 15 13 2 0 4 -6 4 -13z m100 3 c13 -9 13 -11 0 -19 -10 -7 -17 -6
-22 2 -17 26 -5 35 22 17z m687 -15 c0 -8 -4 -12 -9 -9 -5 3 -6 10 -3 15 9 13
12 11 12 -6z m-377 -17 c0 -18 -2 -20 -9 -8 -6 8 -7 18 -5 22 9 14 14 9 14
-14z m-1247 5 c-7 -2 -19 -2 -25 0 -7 3 -2 5 12 5 14 0 19 -2 13 -5z m990 0
c-7 -2 -19 -2 -25 0 -7 3 -2 5 12 5 14 0 19 -2 13 -5z m677 -8 c10 -12 10 -15
-4 -15 -9 0 -16 7 -16 15 0 8 2 15 4 15 2 0 9 -7 16 -15z m-333 -37 c-3 -7 -5
-2 -5 12 0 14 2 19 5 13 2 -7 2 -19 0 -25z m-94 0 c-4 -7 4 -9 21 -6 20 4 26
1 26 -13 0 -11 -4 -19 -10 -19 -5 0 -10 -8 -10 -18 0 -10 -6 -19 -14 -19 -10
0 -13 9 -10 26 4 21 2 23 -7 11 -9 -12 -10 -11 -6 6 2 12 0 28 -5 37 -7 13 -5
15 7 11 8 -3 12 -11 8 -16z m329 -13 c-2 -14 -9 -28 -15 -32 -5 -3 -7 -1 -3 5
3 6 2 14 -4 17 -8 5 -7 11 1 21 18 21 27 17 21 -11z m-1268 -11 c3 -9 1 -12
-4 -9 -6 3 -10 2 -10 -4 0 -6 -8 -8 -17 -4 -10 3 -15 3 -11 -2 4 -4 3 -16 -2
-25 -7 -14 -5 -19 10 -23 30 -8 24 -27 -7 -26 -16 0 -22 3 -15 6 6 2 9 10 5
16 -14 22 -10 48 10 62 10 7 16 18 13 24 -4 7 -1 9 8 5 8 -3 17 -12 20 -20z
m923 -46 c-2 -7 3 -18 11 -24 20 -14 10 -40 -18 -47 -17 -4 -19 -3 -9 9 9 11
8 14 -2 14 -11 0 -11 2 -2 8 7 4 11 18 8 30 -2 12 1 22 6 22 6 0 9 -6 6 -12z
m-839 -34 c22 -11 22 -11 -9 -18 -44 -9 -95 23 -56 37 13 4 29 0 65 -19z
m1389 10 c-3 -3 -12 -4 -19 -1 -8 3 -5 6 6 6 11 1 17 -2 13 -5z m-446 -27 c-6
-6 -11 -19 -11 -29 0 -10 -6 -18 -14 -18 -13 0 -13 4 -1 27 8 15 12 30 9 35
-3 4 2 5 11 2 12 -5 13 -10 6 -17z m-2776 3 c3 -5 2 -10 -4 -10 -5 0 -13 5
-16 10 -3 6 -2 10 4 10 5 0 13 -4 16 -10z m2158 -35 c-9 -15 -11 -15 -23 0
-11 13 -10 15 4 9 10 -4 16 -1 16 7 0 7 3 10 6 6 3 -3 2 -13 -3 -22z m-268
-13 c-3 -3 -11 0 -18 7 -9 10 -8 11 6 5 10 -3 15 -9 12 -12z m435 14 c0 -2 -7
-7 -16 -10 -8 -3 -12 -2 -9 4 6 10 25 14 25 6z m495 -6 c3 -6 -1 -7 -9 -4 -18
7 -21 14 -7 14 6 0 13 -4 16 -10z m-294 -106 c14 -15 18 -24 9 -22 -16 3 -20
-27 -7 -55 5 -12 3 -19 -8 -23 -8 -3 -15 -12 -15 -20 0 -18 -60 -19 -61 -1 0
10 -2 10 -6 0 -2 -7 -20 -13 -39 -13 -27 0 -34 4 -34 20 0 17 -7 20 -47 22
l-48 2 48 3 c39 3 47 8 47 24 0 22 -10 23 -93 9 -63 -10 -116 -1 -62 11 l30 7
-32 1 c-25 1 -31 5 -27 16 5 12 9 13 21 3 9 -7 17 -8 21 -2 4 6 21 10 38 11
27 0 31 -3 27 -21 -3 -20 -3 -20 8 2 12 22 39 31 39 12 0 -5 7 -7 15 -4 8 4
15 11 15 18 0 7 24 12 62 14 35 2 65 5 67 8 6 6 5 6 32 -22z m130 -7 c-1 -4
-1 -18 -1 -31 0 -19 -4 -22 -25 -18 -15 2 -25 11 -25 21 0 14 2 14 11 1 8 -12
10 -8 7 16 -4 28 -2 31 15 25 10 -4 18 -10 18 -14z m-538 -8 c17 -19 17 -20 1
-17 -9 1 -18 11 -20 21 -3 22 -2 21 19 -4z m-487 -10 c47 2 74 -2 74 -8 0 -13
-4 -14 -107 -15 -59 -1 -83 2 -83 10 0 14 21 24 34 16 5 -3 42 -4 82 -3z m141
-21 c-3 -8 -6 -5 -6 6 -1 11 2 17 5 13 3 -3 4 -12 1 -19z m53 2 c12 -8 9 -10
-12 -10 -16 0 -28 5 -28 10 0 13 20 13 40 0z m926 3 c-11 -11 -46 -14 -46 -3
0 6 12 10 27 10 14 0 23 -3 19 -7z m304 1 c0 -8 -19 -13 -24 -6 -3 5 1 9 9 9
8 0 15 -2 15 -3z m-1392 -49 c-3 -3 -9 2 -12 12 -6 14 -5 15 5 6 7 -7 10 -15
7 -18z m997 4 c5 -5 -13 -8 -45 -8 -30 1 -45 4 -32 6 12 2 22 9 22 14 0 11 39
2 55 -12z m364 -7 c-5 -2 -17 -1 -27 3 -13 5 -14 8 -3 15 8 5 19 3 26 -3 7 -7
9 -14 4 -15z m-1305 10 c3 -5 -1 -9 -9 -9 -8 0 -12 4 -9 9 3 4 7 8 9 8 2 0 6
-4 9 -8z m941 -32 c3 -6 -1 -7 -9 -4 -18 7 -21 14 -7 14 6 0 13 -4 16 -10z
m-1616 -54 c18 -3 36 -8 39 -11 5 -5 -49 -9 -75 -6 -16 2 -16 -2 2 -46 8 -20
13 -38 11 -41 -8 -8 -168 60 -188 80 -33 33 -12 41 86 35 50 -4 106 -9 125
-11z m594 -1 c25 -8 49 -15 54 -14 4 1 21 -3 36 -9 16 -7 32 -12 37 -12 5 0
29 -6 52 -14 24 -7 86 -26 138 -41 52 -15 139 -41 192 -57 l97 -29 138 39 c76
22 217 64 313 93 173 53 177 54 320 57 80 1 151 -2 159 -7 19 -12 -37 -82
-144 -180 -44 -40 -79 -78 -77 -83 1 -5 -2 -7 -7 -3 -6 3 -47 -19 -91 -50 -45
-31 -108 -69 -141 -86 -36 -18 -57 -35 -53 -41 5 -8 1 -9 -11 -5 -9 4 -23 3
-29 -2 -33 -27 -333 -132 -381 -133 -5 0 -147 34 -315 77 -458 115 -588 177
-621 297 -6 24 -22 79 -35 123 -17 57 -20 81 -12 86 6 4 84 8 173 9 123 0 173
-3 208 -15z m195 3 c-3 -7 -12 -14 -21 -16 -12 -2 -15 1 -11 12 7 19 38 22 32
4z m837 2 c3 -5 2 -10 -4 -10 -5 0 -13 5 -16 10 -3 6 -2 10 4 10 5 0 13 -4 16
-10z m985 -10 c0 -13 -13 -26 -37 -38 -63 -31 -153 -65 -159 -59 -3 2 2 22 11
42 8 21 13 40 10 43 -15 15 37 31 103 32 65 0 72 -2 72 -20z m-1440 -3 c0 -4
5 -5 10 -2 6 3 10 2 10 -3 0 -6 -50 -8 -117 -7 -135 3 -132 3 -115 13 17 11
212 10 212 -1z m1215 3 c3 -5 1 -10 -4 -10 -6 0 -11 5 -11 10 0 6 2 10 4 10 3
0 8 -4 11 -10z m-77 -14 c-7 -8 -15 -12 -17 -11 -5 6 10 25 20 25 5 0 4 -6 -3
-14z m-2323 -194 c130 -40 208 -61 237 -61 60 -2 61 -10 13 -66 -25 -29 -45
-57 -45 -61 0 -5 19 -27 42 -51 23 -23 39 -45 35 -49 -3 -4 -40 -3 -81 1 l-75
7 -54 61 c-61 71 -159 200 -177 236 -11 22 -11 23 6 16 11 -4 55 -19 99 -33z
m2482 -47 c-25 -37 -77 -104 -116 -150 -69 -80 -73 -82 -123 -89 -29 -3 -69
-6 -88 -6 l-34 0 48 49 49 50 -46 58 c-26 32 -43 60 -39 64 4 3 41 11 82 17
41 6 127 29 190 50 63 21 116 35 118 31 2 -4 -17 -38 -41 -74z m-2026 -364
c38 -29 208 -125 269 -150 30 -13 64 -29 75 -36 11 -7 42 -18 68 -25 l49 -13
-36 -35 -35 -36 -83 28 c-141 48 -314 139 -437 231 l-55 40 60 6 c32 3 69 6
80 7 12 1 32 -6 45 -17z m1684 5 c17 -4 -147 -114 -255 -170 -116 -60 -238
-111 -291 -121 -30 -5 -38 -2 -68 29 l-34 35 39 7 c61 11 224 88 357 168 37
23 77 46 88 52 17 10 125 10 164 0z m-115 -272 c-15 -17 1 -19 18 -2 24 24 11
-8 -36 -92 l-47 -84 -112 -48 c-112 -48 -354 -121 -384 -116 -15 3 -14 9 7 53
13 28 31 71 40 96 l17 45 146 48 c80 26 168 58 194 72 27 13 57 24 68 24 11 0
18 4 15 9 -7 11 37 23 58 15 12 -5 15 -2 10 12 -5 18 -5 18 6 1 9 -14 9 -22 0
-33z m-1577 21 c9 -4 17 -11 17 -16 0 -4 -8 -13 -17 -18 -17 -10 -17 -10 0
-11 9 0 17 5 17 10 0 17 19 12 149 -39 70 -27 160 -59 202 -71 l75 -23 18 -51
c10 -28 29 -73 42 -100 l23 -48 -38 6 c-77 12 -283 77 -379 119 l-97 43 -42
75 c-23 41 -42 83 -42 94 0 15 3 14 11 -7 5 -16 14 -28 19 -28 9 0 -7 45 -25
68 -8 11 -4 13 20 9 16 -3 37 -8 47 -12z"/>
<path d="M3974 4844 c-18 -14 -18 -15 4 -4 12 6 22 13 22 15 0 8 -5 6 -26 -11z"/>
<path d="M4027 4802 c1 -8 3 -16 3 -18 0 -3 5 -2 10 1 6 3 10 11 10 16 0 6 -4
8 -9 5 -5 -4 -11 -3 -14 1 -2 5 -2 2 0 -5z"/>
<path d="M3873 4748 c2 -7 12 -12 22 -10 10 2 14 -1 10 -7 -4 -7 0 -8 11 -4
14 5 13 8 -7 19 -30 17 -42 17 -36 2z"/>
<path d="M3991 4729 c-1 -9 5 -19 12 -22 8 -3 14 1 14 9 0 7 -4 11 -8 8 -4 -2
-10 2 -12 8 -4 8 -6 7 -6 -3z"/>
<path d="M5380 4711 c0 -6 4 -13 10 -16 6 -3 7 1 4 9 -7 18 -14 21 -14 7z"/>
<path d="M3992 4670 c0 -14 2 -19 5 -12 2 6 2 18 0 25 -3 6 -5 1 -5 -13z"/>
<path d="M3685 4640 c3 -5 12 -10 20 -10 8 0 17 5 20 10 4 6 -5 10 -20 10 -15
0 -24 -4 -20 -10z"/>
<path d="M4330 4650 c8 -5 20 -10 25 -10 6 0 3 5 -5 10 -8 5 -19 10 -25 10 -5
0 -3 -5 5 -10z"/>
<path d="M4368 4623 c7 -3 16 -2 19 1 4 3 -2 6 -13 5 -11 0 -14 -3 -6 -6z"/>
<path d="M1975 4110 c3 -5 11 -10 16 -10 6 0 7 5 4 10 -3 6 -11 10 -16 10 -6
0 -7 -4 -4 -10z"/>
<path d="M1890 4083 c0 -11 7 -20 15 -20 12 0 12 3 3 16 -7 9 -14 18 -15 20
-2 2 -3 -5 -3 -16z"/>
<path d="M2091 3884 c0 -11 3 -14 6 -6 3 7 2 16 -1 19 -3 4 -6 -2 -5 -13z"/>
<path d="M2062 3811 l-24 -36 27 26 c15 15 26 31 24 37 -2 5 -14 -7 -27 -27z"/>
<path d="M1860 3777 c0 -7 9 -13 20 -13 11 0 20 1 20 3 0 1 -9 7 -20 13 -15 8
-20 8 -20 -3z"/>
<path d="M3437 4071 c-4 -17 -3 -21 5 -13 5 5 8 16 6 23 -3 8 -7 3 -11 -10z"/>
<path d="M3233 3775 c0 -8 4 -12 9 -9 5 3 6 10 3 15 -9 13 -12 11 -12 -6z"/>
<path d="M3864 4095 c11 -8 17 -16 13 -16 -9 -2 -25 -6 -34 -9 -5 -1 -15 -2
-23 -1 -23 2 -84 -64 -76 -84 3 -9 2 -14 -3 -11 -14 9 -19 -65 -5 -79 8 -8 9
-16 3 -22 -15 -15 16 -35 54 -35 100 0 164 101 126 199 -12 32 -48 73 -63 73
-6 0 -2 -7 8 -15z m22 -41 c-5 16 -4 17 9 6 8 -7 12 -16 9 -21 -3 -5 0 -17 6
-28 7 -14 7 -27 -2 -47 l-13 -27 -5 23 c-6 27 -30 39 -30 16 0 -9 -6 -13 -14
-10 -19 7 -14 34 9 46 10 6 15 7 12 1 -3 -5 0 -10 8 -10 20 0 19 3 -7 40 l-22
32 24 -20 c22 -19 23 -19 16 -1z m-59 -19 c-13 -14 -20 -12 -23 9 -1 9 5 12
17 9 14 -4 15 -8 6 -18z m13 -90 c0 -8 -7 -15 -15 -15 -13 0 -14 3 -3 15 16
18 18 18 18 0z m-32 -32 c-10 -2 -26 -2 -35 0 -10 3 -2 5 17 5 19 0 27 -2 18
-5z m47 -29 c-9 -7 -35 -12 -58 -11 -23 0 -33 2 -22 5 l20 5 -20 7 c-12 5 2 7
38 6 45 -1 54 -3 42 -12z"/>
<path d="M3660 3943 c0 -6 8 -17 18 -24 16 -13 16 -13 2 6 -8 11 -16 22 -17
24 -2 2 -3 0 -3 -6z"/>
<path d="M3690 3886 c0 -2 7 -9 15 -16 13 -11 14 -10 9 4 -5 14 -24 23 -24 12z"/>
<path d="M5275 4096 c18 -13 17 -14 -13 -21 -17 -3 -35 -7 -39 -7 -25 -4 -73
-67 -79 -103 -3 -22 -8 -42 -10 -44 -2 -3 3 -15 11 -28 11 -17 12 -23 3 -23
-8 0 -7 -6 4 -16 22 -22 90 -22 123 0 23 15 25 20 13 34 -12 15 -11 16 4 4 14
-11 19 -10 31 10 23 36 29 67 22 104 -6 35 -58 104 -78 104 -6 0 -2 -6 8 -14z"/>
<path d="M5425 4051 c-3 -5 -2 -12 3 -15 5 -3 9 1 9 9 0 17 -3 19 -12 6z"/>
<path d="M5073 3985 c0 -22 2 -30 4 -17 2 12 2 30 0 40 -3 9 -5 -1 -4 -23z"/>
<path d="M5433 3985 c0 -22 2 -30 4 -17 2 12 2 30 0 40 -3 9 -5 -1 -4 -23z"/>
<path d="M5425 3919 c-4 -6 -5 -12 -2 -15 2 -3 7 2 10 11 7 17 1 20 -8 4z"/>
<path d="M5110 3880 c0 -5 5 -10 11 -10 5 0 7 5 4 10 -3 6 -8 10 -11 10 -2 0
-4 -4 -4 -10z"/>
<path d="M5399 3863 c-13 -16 -12 -17 4 -4 9 7 17 15 17 17 0 8 -8 3 -21 -13z"/>
<path d="M2363 4123 c-31 -6 -29 -21 2 -19 14 0 25 7 25 14 0 6 -1 11 -2 11
-2 -1 -13 -4 -25 -6z"/>
<path d="M2340 4066 c0 -2 7 -7 16 -10 8 -3 12 -2 9 4 -6 10 -25 14 -25 6z"/>
<path d="M2340 3850 c0 -5 5 -10 11 -10 5 0 7 5 4 10 -3 6 -8 10 -11 10 -2 0
-4 -4 -4 -10z"/>
<path d="M2265 3760 c3 -5 8 -10 11 -10 2 0 4 5 4 10 0 6 -5 10 -11 10 -5 0
-7 -4 -4 -10z"/>
<path d="M2640 4150 c0 -5 5 -10 11 -10 5 0 7 5 4 10 -3 6 -8 10 -11 10 -2 0
-4 -4 -4 -10z"/>
<path d="M2983 4020 c0 -36 2 -50 4 -32 2 17 2 47 0 65 -2 17 -4 3 -4 -33z"/>
<path d="M2641 3974 c0 -11 3 -14 6 -6 3 7 2 16 -1 19 -3 4 -6 -2 -5 -13z"/>
<path d="M2896 3981 c-4 -7 -5 -15 -2 -18 9 -9 19 4 14 18 -4 11 -6 11 -12 0z"/>
<path d="M2667 3919 c4 -13 8 -18 11 -10 2 7 -1 18 -6 23 -8 8 -9 4 -5 -13z"/>
<path d="M2760 3920 c0 -13 18 -22 24 -11 3 5 -1 11 -9 15 -8 3 -15 1 -15 -4z"/>
<path d="M2640 3850 c0 -5 5 -10 11 -10 5 0 7 5 4 10 -3 6 -8 10 -11 10 -2 0
-4 -4 -4 -10z"/>
<path d="M2681 3839 c-1 -9 9 -19 21 -22 29 -8 31 -5 12 19 -8 10 -13 13 -9 7
3 -7 2 -13 -4 -13 -5 0 -12 6 -14 13 -4 7 -6 6 -6 -4z"/>
<path d="M2682 3790 c0 -14 2 -19 5 -12 2 6 2 18 0 25 -3 6 -5 1 -5 -13z"/>
<path d="M2796 3774 c-5 -14 -4 -15 9 -4 17 14 19 20 6 20 -5 0 -12 -7 -15
-16z"/>
<path d="M4655 4110 c3 -5 8 -10 11 -10 2 0 4 5 4 10 0 6 -5 10 -11 10 -5 0
-7 -4 -4 -10z"/>
<path d="M4755 4110 c-3 -5 -1 -10 4 -10 6 0 11 5 11 10 0 6 -2 10 -4 10 -3 0
-8 -4 -11 -10z"/>
<path d="M4751 3924 c0 -11 3 -14 6 -6 3 7 2 16 -1 19 -3 4 -6 -2 -5 -13z"/>
<path d="M4750 3850 c0 -5 5 -10 11 -10 5 0 7 5 4 10 -3 6 -8 10 -11 10 -2 0
-4 -4 -4 -10z"/>
<path d="M5783 4096 c24 -19 21 -26 -11 -26 -26 0 -27 -2 -27 -47 0 -40 -3
-48 -18 -47 -9 1 -17 -2 -17 -7 0 -14 53 -10 73 5 40 31 40 116 0 130 -17 6
-17 5 0 -8z"/>
<path d="M5901 4064 c0 -11 3 -14 6 -6 3 7 2 16 -1 19 -3 4 -6 -2 -5 -13z"/>
<path d="M5680 3995 c0 -8 2 -15 4 -15 2 0 6 7 10 15 3 8 1 15 -4 15 -6 0 -10
-7 -10 -15z"/>
<path d="M5885 3969 c-4 -6 -5 -12 -2 -15 2 -3 7 2 10 11 7 17 1 20 -8 4z"/>
<path d="M5830 3892 c0 -12 19 -26 26 -19 2 2 -2 10 -11 17 -9 8 -15 8 -15 2z"/>
<path d="M5721 3887 c2 -1 12 -9 22 -16 15 -12 17 -12 11 3 -3 9 -13 16 -22
16 -8 0 -13 -1 -11 -3z"/>
<path d="M5680 3855 c0 -8 4 -15 10 -15 5 0 7 7 4 15 -4 8 -8 15 -10 15 -2 0
-4 -7 -4 -15z"/>
<path d="M6170 4112 c0 -4 9 -8 20 -8 11 0 20 4 20 8 0 4 -9 8 -20 8 -11 0
-20 -4 -20 -8z"/>
<path d="M6224 4111 c3 -5 15 -7 27 -4 12 4 25 0 30 -8 7 -11 9 -10 9 4 0 13
-8 17 -36 17 -19 0 -33 -4 -30 -9z"/>
<path d="M6387 4109 c7 -7 15 -10 18 -7 3 3 -2 9 -12 12 -14 6 -15 5 -6 -5z"/>
<path d="M6360 4076 c0 -8 4 -17 9 -20 5 -4 7 3 4 14 -6 23 -13 26 -13 6z"/>
<path d="M6335 4060 c3 -5 8 -10 11 -10 2 0 4 5 4 10 0 6 -5 10 -11 10 -5 0
-7 -4 -4 -10z"/>
<path d="M6200 4020 c0 -5 5 -10 11 -10 5 0 7 5 4 10 -3 6 -8 10 -11 10 -2 0
-4 -4 -4 -10z"/>
<path d="M6168 4013 c7 -3 16 -2 19 1 4 3 -2 6 -13 5 -11 0 -14 -3 -6 -6z"/>
<path d="M6180 3936 c0 -2 7 -9 15 -16 13 -11 14 -10 9 4 -5 14 -24 23 -24 12z"/>
<path d="M6214 3932 c6 -10 42 -9 52 1 4 4 -7 7 -25 7 -18 0 -30 -4 -27 -8z"/>
<path d="M6244 3892 c-17 -2 -21 -8 -16 -24 4 -18 2 -20 -16 -16 -12 4 -22 2
-22 -3 0 -5 22 -9 49 -9 46 0 49 1 53 29 4 31 4 31 -48 23z"/>
<path d="M6360 3800 c0 -21 -5 -30 -17 -30 -9 0 -14 -3 -10 -6 3 -4 14 -3 24
1 10 5 21 8 25 7 5 -1 4 22 -2 38 -1 3 -2 8 -1 13 0 4 -3 7 -9 7 -5 0 -10 -13
-10 -30z"/>
<path d="M6215 3760 c3 -5 8 -10 11 -10 2 0 4 5 4 10 0 6 -5 10 -11 10 -5 0
-7 -4 -4 -10z"/>
<path d="M6245 3760 c3 -5 8 -10 11 -10 2 0 4 5 4 10 0 6 -5 10 -11 10 -5 0
-7 -4 -4 -10z"/>
<path d="M4855 2550 c3 -5 8 -10 11 -10 2 0 4 5 4 10 0 6 -5 10 -11 10 -5 0
-7 -4 -4 -10z"/>
<path d="M4893 2513 c-15 -5 -17 -23 -4 -23 5 0 11 7 15 15 3 8 4 15 3 14 -1
0 -8 -3 -14 -6z"/>
</g>
</svg>
